<svg width="100" height="100" viewBox="0 0 100 100" fill="none" xmlns="http://www.w3.org/2000/svg">
<rect width="100" height="100" rx="26" fill="#FF7D7D"/>
<path d="M36.4177 43L35.9557 40.558H32.4797L32.0177 43H29.0257L31.9957 27.6H36.5497L39.3657 43H36.4177ZM34.1737 30.46L33.3157 35.586L32.8317 38.204H35.5817L35.0757 35.586L34.2177 30.46H34.1737ZM40.6468 43V27.6H43.6608V40.448H48.2368V43H40.6468ZM49.7347 43V27.6H57.7647V30.24H52.7487V34.09H57.1047V36.642H52.7487V43H49.7347ZM64.4977 43L64.0357 40.558H60.5597L60.0977 43H57.1057L60.0757 27.6H64.6297L67.4457 43H64.4977ZM62.2537 30.46L61.3957 35.586L60.9117 38.204H63.6617L63.1557 35.586L62.2977 30.46H62.2537ZM24.2113 58.6H30.0633C30.9873 58.908 31.7719 59.48 32.4173 60.316C33.0773 61.1373 33.4073 62.1493 33.4073 63.352C33.4073 65.3173 32.6299 66.762 31.0753 67.686L33.2973 74H30.2173L28.3473 68.39H27.1813V74H24.2113V58.6ZM27.1813 61.24V65.926H29.0733C29.3226 65.8673 29.5939 65.618 29.8873 65.178C30.1953 64.7233 30.3493 64.1953 30.3493 63.594C30.3493 62.9927 30.2173 62.4647 29.9533 62.01C29.7039 61.5553 29.4546 61.2987 29.2053 61.24H27.1813ZM34.9964 74V58.6H42.8944V61.24H38.0104V64.914H42.3664V67.466H38.0104V71.448H42.9824V74H34.9964ZM44.6859 74V58.6H47.6999V71.448H52.2759V74H44.6859ZM53.7738 74V58.6H56.7878V74H53.7738ZM58.9085 74V58.6H66.9385V61.24H61.9225V65.09H66.2785V67.642H61.9225V74H58.9085ZM68.2113 74V58.6H76.1093V61.24H71.2253V64.914H75.5813V67.466H71.2253V71.448H76.1973V74H68.2113Z" fill="white"/>
</svg>
